:version 1.10
:name ASF
:units
  mass 1
  length 1
  angle deg
:documentation
  ASF file generated by Kaydara
:root
  axis xyz
  order  tx ty tz rx ry rz
  position 0 0 0
  orientation 0 0 0
:bonedata
  begin
    id 1
    name RightUpLegDummy
    direction -0.718183 -0.695806 0.00816078
    length 4.904
    axis 0 0 0 xyz
  end
  begin
    id 2
    name RightUpLeg
    direction 3.53373e-006 -0.995788 0.0916898
    length 17.4976
    axis -3.49089 -0.000906625 0.000286804 xyz
    dof rx ry rz
  end
  begin
    id 3
    name RightLeg
    direction 0.00371092 -0.995096 -0.0988419
    length 16.5821
    axis 3.68512 0.0193738 -0.131023 xyz
    dof rx ry rz
  end
  begin
    id 4
    name RightFoot
    direction 0.00079151 -0.46099 0.887405
    length 3.77069
    axis 4.81691e-005 -0.120479 -0.188788 xyz
    dof rx ry rz
  end
  begin
    id 5
    name RightToes
    direction 0 0 0
    length 0
    axis 0 0 0 xyz
    dof rx ry rz
  end
  begin
    id 6
    name SpineDummy
    direction 8.3039e-015 1 4.57515e-016
    length 4.6813
    axis 0 0 0 xyz
  end
  begin
    id 7
    name Spine
    direction -3.15643e-008 0.999988 0.00495137
    length 10.1015
    axis -0.001389 0.000121418 2.40972e-006 xyz
    dof rx ry rz
  end
  begin
    id 8
    name Spine1
    direction 0 0 0
    length 0
    axis -0.001389 0.000121451 1.30017e-006 xyz
    dof rx ry rz
  end
  begin
    id 9
    name HEadDummy
    direction -1.99912e-008 0.999999 0.00127422
    length 3.43865
    axis -0.001389 0.000121451 1.30017e-006 xyz
  end
  begin
    id 10
    name HEad
    direction 0 0 0
    length 0
    axis 0 0 0 xyz
    dof rx ry rz
  end
  begin
    id 11
    name LeftShoulder1Dummy
    direction 0.998891 -0.0402509 -0.0244456
    length 3.5433
    axis -0.001389 0.000121451 1.30017e-006 xyz
  end
  begin
    id 12
    name LeftShoulder1
    direction 0.99951 -0.000327763 0.0313091
    length 4.05031
    axis -0.001389 0.000121451 1.30017e-006 xyz
    dof rx ry rz
  end
  begin
    id 13
    name LeftArm
    direction 0.998561 -0.00100056 -0.0536182
    length 10.3537
    axis -23.1894 0.134784 0.967509 xyz
    dof rx ry rz
  end
  begin
    id 14
    name LeftForeArm
    direction 0.998903 0.00866432 0.046012
    length 8.70632
    axis -9.91835 -0.06569 -0.177794 xyz
    dof rx ry rz
  end
  begin
    id 15
    name LeftHand
    direction 0 0 0
    length 0
    axis 0 0 0 xyz
    dof rx ry rz
  end
  begin
    id 16
    name RightShoulderDummy
    direction -0.998891 -0.0402509 -0.0244414
    length 3.5433
    axis -0.001389 0.000121451 1.30017e-006 xyz
  end
  begin
    id 17
    name RightShoulder
    direction -0.99951 -0.000327807 0.0313133
    length 4.05031
    axis 0.215806 0.000203643 -0.0068026 xyz
    dof rx ry rz
  end
  begin
    id 18
    name RightArm
    direction -0.998573 -0.000999564 -0.053403
    length 10.3947
    axis -23.2009 -0.134239 -0.964101 xyz
    dof rx ry rz
  end
  begin
    id 19
    name RightForeArm
    direction -0.998898 0.00868028 0.0461306
    length 8.68355
    axis -9.92322 0.0658061 0.178868 xyz
    dof rx ry rz
  end
  begin
    id 20
    name RightHand
    direction 0 0 0
    length 0
    axis 0 0 0 xyz
    dof rx ry rz
  end
  begin
    id 21
    name LeftUpLegDummy
    direction 0.718183 -0.695806 0.00816078
    length 4.904
    axis 0 0 0 xyz
  end
  begin
    id 22
    name LeftUpLeg
    direction -6.81752e-006 -0.995793 0.0916337
    length 17.4976
    axis -3.48766 0.00143442 -0.000524262 xyz
    dof rx ry rz
  end
  begin
    id 23
    name LeftLeg
    direction -0.00601358 -0.995091 -0.0987824
    length 16.5821
    axis 3.68178 -0.00654042 -0.000285133 xyz
    dof rx ry rz
  end
  begin
    id 24
    name LeftFoot
    direction -0.00417578 -0.460984 0.887399
    length 3.77069
    axis 1.87233e-006 4.66016e-005 -8.6538e-006 xyz
    dof rx ry rz
  end
  begin
    id 25
    name LeftToes
    direction 0 0 0
    length 0
    axis 0 0 0 xyz
    dof rx ry rz
  end
:hierarchy
  begin
    root RightUpLegDummy SpineDummy LeftUpLegDummy
    RightUpLegDummy RightUpLeg
    RightUpLeg RightLeg
    RightLeg RightFoot
    RightFoot RightToes
    SpineDummy Spine
    Spine Spine1
    Spine1 HEadDummy LeftShoulder1Dummy RightShoulderDummy
    HEadDummy HEad
    LeftShoulder1Dummy LeftShoulder1
    LeftShoulder1 LeftArm
    LeftArm LeftForeArm
    LeftForeArm LeftHand
    RightShoulderDummy RightShoulder
    RightShoulder RightArm
    RightArm RightForeArm
    RightForeArm RightHand
    LeftUpLegDummy LeftUpLeg
    LeftUpLeg LeftLeg
    LeftLeg LeftFoot
    LeftFoot LeftToes
  end

:SAMPLES-PER-SECOND 30
:FULLY-SPECIFIED
:DEGREES
150
root  11.8517 40.6937 7.87263 25.6533 81.5033 23.278
RightUpLeg  -11.6147 -9.43192 -9.13862
RightLeg  8.1089 -0.522369 1.62123
RightFoot  3.5691 0.0110324 0.100143
RightToes  0.000481921 0.542163 -0.142578
Spine  20.7288 5.31344 24.4847
Spine1  -1.41849 14.4666 -27.5113
HEad  11.2026 -22.6965 4.35426
LeftShoulder1  6.10613 -11.8316 -33.7699
LeftArm  -0.798425 2.68637 -36.7771
LeftForeArm  177.823 -61.3963 -162.597
LeftHand  -0.25398 0.0180481 5.50724
RightShoulder  0.505028 3.67022 -1.40271
RightArm  -38.9034 65.1194 41.3934
RightForeArm  31.2275 9.13147 -2.24064
RightHand  -0.359111 0.748591 -7.23664
LeftUpLeg  -3.78745 6.06033 2.55106
LeftLeg  -0.405049 25.7722 -6.42572
LeftFoot  2.80676 0.261651 -2.24507
LeftToes  1.06247e-005 4.65869e-005 -8.65511e-006
151
root  11.9403 40.7525 7.97961 52.2463 85.0999 48.6198
RightUpLeg  -10.6661 -9.79614 -9.14482
RightLeg  6.06757 -4.39437 2.41137
RightFoot  3.81034 -0.0219675 0.361502
RightToes  0.000481921 0.542163 -0.142578
Spine  19.1144 5.01843 21.7503
Spine1  -2.84704 12.1352 -22.7472
HEad  12.43 -22.6269 3.99042
LeftShoulder1  6.30878 -11.8144 -35.1194
LeftArm  -0.202348 4.81245 -37.6701
LeftForeArm  -179.621 -60.8511 -163.195
LeftHand  -0.25398 0.0180481 5.50724
RightShoulder  0.550182 2.1875 1.39627
RightArm  -33.8899 57.7192 45.0589
RightForeArm  33.335 28.8722 4.59494
RightHand  -0.37603 0.796455 -6.93388
LeftUpLeg  -5.3084 5.68036 2.90413
LeftLeg  -0.91976 22.2053 -6.13539
LeftFoot  3.44305 0.272822 -2.26557
LeftToes  1.06247e-005 4.65869e-005 -8.65511e-006
152
root  12.1556 40.8073 8.12628 136.26 87.0836 132.337
RightUpLeg  -8.12314 -10.4799 -9.27297
RightLeg  4.18963 -9.59217 3.26522
RightFoot  3.47368 -0.0904941 0.879951
RightToes  0.000481921 0.542163 -0.142578
Spine  16.3889 3.62705 16.8574
Spine1  -2.26442 8.29521 -14.827
HEad  12.4706 -21.4394 3.59335
LeftShoulder1  6.45463 -11.5922 -36.6545
LeftArm  -0.170637 7.66262 -38.1641
LeftForeArm  -179.865 -59.7192 -163.904
LeftHand  -0.25398 0.0180481 5.50724
RightShoulder  1.07216 3.12935 8.57825
RightArm  -22.1792 41.7003 46.551
RightForeArm  42.5795 64.7248 24.6171
RightHand  -0.0603956 -4.51608 -2.53789
LeftUpLeg  -6.04478 5.01673 3.16655
LeftLeg  -1.21905 16.9911 -5.27295
LeftFoot  4.20058 0.267512 -2.1469
LeftToes  1.06247e-005 4.65869e-005 -8.65511e-006
153
root  12.3941 40.8244 8.30438 167.965 83.4362 164.395
RightUpLeg  -6.44518 -10.9176 -9.5223
RightLeg  4.30006 -12.8182 3.4993
RightFoot  2.52789 -0.117588 1.10608
RightToes  0.000481921 0.542163 -0.142578
Spine  15.0893 2.21691 12.3457
Spine1  -1.01464 5.34527 -9.29428
HEad  11.1546 -19.9752 3.39943
LeftShoulder1  6.14443 -10.951 -36.3969
LeftArm  0.0978301 9.35146 -38.5214
LeftForeArm  178.625 -59.0194 -164.202
LeftHand  -0.25398 0.0180481 5.50724
RightShoulder  1.83783 4.84331 15.2988
RightArm  -19.534 22.0746 47.0148
RightForeArm  138.234 78.5257 126.28
RightHand  -0.116354 -9.92089 1.34246
LeftUpLeg  -5.70129 4.55767 3.14246
LeftLeg  -1.60494 13.6671 -4.78819
LeftFoot  4.7303 0.287586 -2.24041
LeftToes  1.06247e-005 4.65869e-005 -8.65511e-006
154
root  12.6347 40.8065 8.48449 167.247 81.4395 163.872
RightUpLeg  -6.26958 -11.3197 -9.8574
RightLeg  6.12604 -14.3096 3.04516
RightFoot  1.19183 -0.105857 1.03728
RightToes  0.000481921 0.542163 -0.142578
Spine  14.6522 1.36838 8.77381
Spine1  -0.284956 3.47783 -5.90741
HEad  9.57011 -18.0812 2.72606
LeftShoulder1  5.53488 -9.79009 -35.5561
LeftArm  0.683288 9.99994 -38.4337
LeftForeArm  179.39 -58.7657 -164.417
LeftHand  -0.25398 0.0180481 5.50724
RightShoulder  2.3684 5.02985 21.5406
RightArm  -19.3896 1.69825 49.804
RightForeArm  173.318 60.388 164.039
RightHand  -0.241556 -10.4953 3.72793
LeftUpLeg  -5.38131 4.28771 2.91753
LeftLeg  -1.65366 12.0382 -4.63651
LeftFoot  4.88589 0.317645 -2.43735
LeftToes  1.06247e-005 4.65869e-005 -8.65511e-006
155
root  12.8706 40.7749 8.58613 168.823 79.8273 165.71
RightUpLeg  -5.93682 -11.7017 -10.0548
RightLeg  7.64858 -15.4928 2.68306
RightFoot  0.072232 -0.10618 1.06836
RightToes  0.000481921 0.542163 -0.142578
Spine  13.9805 0.380075 4.98515
Spine1  0.314761 1.20079 -1.49646
HEad  8.99233 -14.3121 0.942412
LeftShoulder1  4.99707 -8.32626 -36.1422
LeftArm  0.153542 10.9872 -37.822
LeftForeArm  -178.782 -58.2049 -164.895
LeftHand  -0.25398 0.0180481 5.50724
RightShoulder  2.55457 4.30892 26.6011
RightArm  -18.9992 -13.6322 51.5295
RightForeArm  174.589 50.7729 168.179
RightHand  -0.23416 -8.95903 5.18454
LeftUpLeg  -5.45124 4.23782 2.88397
LeftLeg  -0.684269 10.4541 -4.34961
LeftFoot  4.49994 0.29962 -2.34864
LeftToes  1.06247e-005 4.65869e-005 -8.65511e-006
